<?xml version="1.0" encoding="UTF-8" standalone="no"?>
<!DOCTYPE svg PUBLIC "-//W3C//DTD SVG 1.1//EN"
 "http://www.w3.org/Graphics/SVG/1.1/DTD/svg11.dtd">
<!-- Generated by graphviz version 2.43.0 (0)
 -->
<!-- Title: Tree Pages: 1 -->
<svg width="720pt" height="436pt"
 viewBox="0.00 0.00 720.00 435.77" xmlns="http://www.w3.org/2000/svg" xmlns:xlink="http://www.w3.org/1999/xlink">
<g id="graph0" class="graph" transform="scale(1 1) rotate(0) translate(4 432.98)">
<title>Tree</title>
<polygon fill="white" stroke="transparent" points="-4,4 -4,-432.98 718,-432.98 718,4 -4,4"/>
<!-- 0 -->
<g id="node1" class="node">
<title>0</title>
<path fill="#eeab7b" stroke="black" d="M267.5,-424C267.5,-424 79.5,-424 79.5,-424 73.5,-424 67.5,-418 67.5,-412 67.5,-412 67.5,-368 67.5,-368 67.5,-362 73.5,-356 79.5,-356 79.5,-356 267.5,-356 267.5,-356 273.5,-356 279.5,-362 279.5,-368 279.5,-368 279.5,-412 279.5,-412 279.5,-418 273.5,-424 267.5,-424"/>
<text text-anchor="start" x="75.5" y="-408.8" font-family="Helvetica,sans-Serif" font-size="14.00">conditioning_intensity ≤ 0.5</text>
<text text-anchor="start" x="99" y="-393.8" font-family="Helvetica,sans-Serif" font-size="14.00">squared_error = 0.25</text>
<text text-anchor="start" x="111.5" y="-378.8" font-family="Helvetica,sans-Serif" font-size="14.00">samples = 23040</text>
<text text-anchor="start" x="128" y="-363.8" font-family="Helvetica,sans-Serif" font-size="14.00">value = 0.54</text>
</g>
<!-- 1 -->
<g id="node2" class="node">
<title>1</title>
<path fill="#ffffff" stroke="black" d="M153,-57.5C153,-57.5 12,-57.5 12,-57.5 6,-57.5 0,-51.5 0,-45.5 0,-45.5 0,-16.5 0,-16.5 0,-10.5 6,-4.5 12,-4.5 12,-4.5 153,-4.5 153,-4.5 159,-4.5 165,-10.5 165,-16.5 165,-16.5 165,-45.5 165,-45.5 165,-51.5 159,-57.5 153,-57.5"/>
<text text-anchor="start" x="8" y="-42.3" font-family="Helvetica,sans-Serif" font-size="14.00">squared_error = 0.17</text>
<text text-anchor="start" x="25" y="-27.3" font-family="Helvetica,sans-Serif" font-size="14.00">samples = 3843</text>
<text text-anchor="start" x="37" y="-12.3" font-family="Helvetica,sans-Serif" font-size="14.00">value = 0.21</text>
</g>
<!-- 0&#45;&gt;1 -->
<g id="edge1" class="edge">
<title>0&#45;&gt;1</title>
<path fill="none" stroke="black" d="M165.02,-355.73C147.9,-288.56 109.32,-137.23 91.65,-67.91"/>
<polygon fill="black" stroke="black" points="94.96,-66.73 89.1,-57.9 88.18,-68.46 94.96,-66.73"/>
<text text-anchor="middle" x="76.34" y="-75.7" font-family="Helvetica,sans-Serif" font-size="14.00">True</text>
</g>
<!-- 2 -->
<g id="node3" class="node">
<title>2</title>
<path fill="#ea9a61" stroke="black" d="M336,-304C336,-304 195,-304 195,-304 189,-304 183,-298 183,-292 183,-292 183,-248 183,-248 183,-242 189,-236 195,-236 195,-236 336,-236 336,-236 342,-236 348,-242 348,-248 348,-248 348,-292 348,-292 348,-298 342,-304 336,-304"/>
<text text-anchor="start" x="208" y="-288.8" font-family="Helvetica,sans-Serif" font-size="14.00">graft_type ≤ 1.5</text>
<text text-anchor="start" x="191" y="-273.8" font-family="Helvetica,sans-Serif" font-size="14.00">squared_error = 0.24</text>
<text text-anchor="start" x="203.5" y="-258.8" font-family="Helvetica,sans-Serif" font-size="14.00">samples = 19197</text>
<text text-anchor="start" x="220" y="-243.8" font-family="Helvetica,sans-Serif" font-size="14.00">value = 0.61</text>
</g>
<!-- 0&#45;&gt;2 -->
<g id="edge2" class="edge">
<title>0&#45;&gt;2</title>
<path fill="none" stroke="black" d="M199.37,-355.82C209.86,-342.37 222.08,-326.69 233.14,-312.5"/>
<polygon fill="black" stroke="black" points="236.11,-314.38 239.5,-304.34 230.59,-310.08 236.11,-314.38"/>
<text text-anchor="middle" x="242.58" y="-325.45" font-family="Helvetica,sans-Serif" font-size="14.00">False</text>
</g>
<!-- 3 -->
<g id="node4" class="node">
<title>3</title>
<path fill="#f1b991" stroke="black" d="M336,-57.5C336,-57.5 195,-57.5 195,-57.5 189,-57.5 183,-51.5 183,-45.5 183,-45.5 183,-16.5 183,-16.5 183,-10.5 189,-4.5 195,-4.5 195,-4.5 336,-4.5 336,-4.5 342,-4.5 348,-10.5 348,-16.5 348,-16.5 348,-45.5 348,-45.5 348,-51.5 342,-57.5 336,-57.5"/>
<text text-anchor="start" x="191" y="-42.3" font-family="Helvetica,sans-Serif" font-size="14.00">squared_error = 0.25</text>
<text text-anchor="start" x="208" y="-27.3" font-family="Helvetica,sans-Serif" font-size="14.00">samples = 3802</text>
<text text-anchor="start" x="220" y="-12.3" font-family="Helvetica,sans-Serif" font-size="14.00">value = 0.48</text>
</g>
<!-- 2&#45;&gt;3 -->
<g id="edge3" class="edge">
<title>2&#45;&gt;3</title>
<path fill="none" stroke="black" d="M265.5,-235.8C265.5,-191.48 265.5,-113.29 265.5,-67.73"/>
<polygon fill="black" stroke="black" points="269,-67.7 265.5,-57.7 262,-67.7 269,-67.7"/>
</g>
<!-- 4 -->
<g id="node5" class="node">
<title>4</title>
<path fill="#e99355" stroke="black" d="M542.5,-184C542.5,-184 354.5,-184 354.5,-184 348.5,-184 342.5,-178 342.5,-172 342.5,-172 342.5,-128 342.5,-128 342.5,-122 348.5,-116 354.5,-116 354.5,-116 542.5,-116 542.5,-116 548.5,-116 554.5,-122 554.5,-128 554.5,-128 554.5,-172 554.5,-172 554.5,-178 548.5,-184 542.5,-184"/>
<text text-anchor="start" x="350.5" y="-168.8" font-family="Helvetica,sans-Serif" font-size="14.00">conditioning_intensity ≤ 4.5</text>
<text text-anchor="start" x="374" y="-153.8" font-family="Helvetica,sans-Serif" font-size="14.00">squared_error = 0.23</text>
<text text-anchor="start" x="386.5" y="-138.8" font-family="Helvetica,sans-Serif" font-size="14.00">samples = 15395</text>
<text text-anchor="start" x="403" y="-123.8" font-family="Helvetica,sans-Serif" font-size="14.00">value = 0.63</text>
</g>
<!-- 2&#45;&gt;4 -->
<g id="edge4" class="edge">
<title>2&#45;&gt;4</title>
<path fill="none" stroke="black" d="M316.96,-235.82C339.18,-221.49 365.32,-204.64 388.42,-189.74"/>
<polygon fill="black" stroke="black" points="390.6,-192.5 397.11,-184.14 386.81,-186.62 390.6,-192.5"/>
</g>
<!-- 5 -->
<g id="node6" class="node">
<title>5</title>
<path fill="#eb9d66" stroke="black" d="M519,-57.5C519,-57.5 378,-57.5 378,-57.5 372,-57.5 366,-51.5 366,-45.5 366,-45.5 366,-16.5 366,-16.5 366,-10.5 372,-4.5 378,-4.5 378,-4.5 519,-4.5 519,-4.5 525,-4.5 531,-10.5 531,-16.5 531,-16.5 531,-45.5 531,-45.5 531,-51.5 525,-57.5 519,-57.5"/>
<text text-anchor="start" x="374" y="-42.3" font-family="Helvetica,sans-Serif" font-size="14.00">squared_error = 0.24</text>
<text text-anchor="start" x="391" y="-27.3" font-family="Helvetica,sans-Serif" font-size="14.00">samples = 9651</text>
<text text-anchor="start" x="403" y="-12.3" font-family="Helvetica,sans-Serif" font-size="14.00">value = 0.59</text>
</g>
<!-- 4&#45;&gt;5 -->
<g id="edge5" class="edge">
<title>4&#45;&gt;5</title>
<path fill="none" stroke="black" d="M448.5,-115.79C448.5,-100.85 448.5,-83.2 448.5,-67.96"/>
<polygon fill="black" stroke="black" points="452,-67.86 448.5,-57.86 445,-67.86 452,-67.86"/>
</g>
<!-- 6 -->
<g id="node7" class="node">
<title>6</title>
<path fill="#e58139" stroke="black" d="M702,-57.5C702,-57.5 561,-57.5 561,-57.5 555,-57.5 549,-51.5 549,-45.5 549,-45.5 549,-16.5 549,-16.5 549,-10.5 555,-4.5 561,-4.5 561,-4.5 702,-4.5 702,-4.5 708,-4.5 714,-10.5 714,-16.5 714,-16.5 714,-45.5 714,-45.5 714,-51.5 708,-57.5 702,-57.5"/>
<text text-anchor="start" x="557" y="-42.3" font-family="Helvetica,sans-Serif" font-size="14.00">squared_error = 0.21</text>
<text text-anchor="start" x="574" y="-27.3" font-family="Helvetica,sans-Serif" font-size="14.00">samples = 5744</text>
<text text-anchor="start" x="586" y="-12.3" font-family="Helvetica,sans-Serif" font-size="14.00">value = 0.71</text>
</g>
<!-- 4&#45;&gt;6 -->
<g id="edge6" class="edge">
<title>4&#45;&gt;6</title>
<path fill="none" stroke="black" d="M500.45,-115.79C526.26,-99.29 557.26,-79.47 582.63,-63.25"/>
<polygon fill="black" stroke="black" points="584.81,-66 591.35,-57.67 581.04,-60.11 584.81,-66"/>
</g>
</g>
</svg>
